HIERARCHY
ROOT Hips
{
 OFFSET 0.000000 0.000000 0.000000
 CHANNELS 6 Xposition Yposition Zposition Yrotation Xrotation Zrotation
 JOINT Chest
 {
  OFFSET 0.000000 9.585900 0.002600
  CHANNELS 3 Yrotation Xrotation Zrotation
  JOINT Chest2
  {
   OFFSET 0.000000 9.601200 -0.005300
   CHANNELS 3 Yrotation Xrotation Zrotation
   JOINT Chest3
   {
    OFFSET 0.000000 9.561800 0.000000
    CHANNELS 3 Yrotation Xrotation Zrotation
    JOINT Chest4
    {
     OFFSET 0.000000 9.552100 0.000000
     CHANNELS 3 Yrotation Xrotation Zrotation
     JOINT Neck
     {
      OFFSET 0.000000 14.453000 0.000000
      CHANNELS 3 Yrotation Xrotation Zrotation
      JOINT Head
      {
       OFFSET 0.000000 8.936500 -0.011300
       CHANNELS 3 Yrotation Xrotation Zrotation
       End Site
       {
        OFFSET 0.000000 17.073600 -0.006000
       }
      }
     }
     JOINT RightCollar
     {
      OFFSET -2.921100 9.558500 0.000000
      CHANNELS 3 Yrotation Xrotation Zrotation
      JOINT RightShoulder
      {
       OFFSET -13.519700 0.000000 0.000000
       CHANNELS 3 Yrotation Xrotation Zrotation
       JOINT RightElbow
       {
        OFFSET 0.000000 -29.696600 0.000000
        CHANNELS 3 Yrotation Xrotation Zrotation
        JOINT RightWrist
        {
         OFFSET 0.000000 -24.004700 0.000000
         CHANNELS 3 Yrotation Xrotation Zrotation
         End Site
         {
          OFFSET 0.000000 -17.728500 0.000000
         }
        }
       }
      }
     }
     JOINT LeftCollar
     {
      OFFSET 2.921100 9.558500 0.000000
      CHANNELS 3 Yrotation Xrotation Zrotation
      JOINT LeftShoulder
      {
       OFFSET 13.519700 0.000000 0.000000
       CHANNELS 3 Yrotation Xrotation Zrotation
       JOINT LeftElbow
       {
        OFFSET 0.000000 -29.696600 0.000000
        CHANNELS 3 Yrotation Xrotation Zrotation
        JOINT LeftWrist
        {
         OFFSET 0.000000 -24.004700 0.000000
         CHANNELS 3 Yrotation Xrotation Zrotation
         End Site
         {
          OFFSET 0.000000 -17.728500 0.000000
         }
        }
       }
      }
     }
    }
   }
  }
 }
 JOINT RightHip
 {
  OFFSET -7.771700 -0.012900 -0.001300
  CHANNELS 3 Yrotation Xrotation Zrotation
  JOINT RightKnee
  {
   OFFSET 0.000000 -40.869800 0.001200
   CHANNELS 3 Yrotation Xrotation Zrotation
   JOINT RightAnkle
   {
    OFFSET 0.000000 -39.717900 0.002100
    CHANNELS 3 Yrotation Xrotation Zrotation
    JOINT RightToe
    {
     OFFSET 0.000000 -4.965400 11.033500
     CHANNELS 3 Yrotation Xrotation Zrotation
     End Site
     {
      OFFSET 0.000000 -1.423100 5.872300
     }
    }
   }
  }
 }
 JOINT LeftHip
 {
  OFFSET 7.771700 -0.012900 -0.001300
  CHANNELS 3 Yrotation Xrotation Zrotation
  JOINT LeftKnee
  {
   OFFSET 0.000000 -40.869800 0.001200
   CHANNELS 3 Yrotation Xrotation Zrotation
   JOINT LeftAnkle
   {
    OFFSET 0.000000 -39.717900 0.002100
    CHANNELS 3 Yrotation Xrotation Zrotation
    JOINT LeftToe
    {
     OFFSET 0.000000 -4.965400 11.033500
     CHANNELS 3 Yrotation Xrotation Zrotation
     End Site
     {
      OFFSET 0.000000 -1.423100 5.872300
     }
    }
   }
  }
 }
}
MOTION
Frames: 8
Frame Time: 0.008333
0.000000 85.388000 0.000000 0.000000 -5.767877 0.000000 0.000000 11.653817 0.000000 0.000000 -5.885947 0.000000 0.000000 -0.000000 0.000000 0.000000 -0.000000 0.000000 0.000000 12.528835 0.000000 0.000000 0.711642 0.000000 0.000000 -0.000000 0.000000 0.000000 0.000000 -90.000000 0.000000 -2.309062 0.000000 0.000000 2.309062 0.000000 0.000000 -0.000000 0.000000 0.000000 -0.000000 90.000000 0.000000 -2.309062 0.000000 0.000000 2.309062 0.000000 0.000000 8.520406 0.000000 0.000000 1.905762 0.000000 -0.000000 -4.658285 0.000000 0.000000 -0.000000 0.000000 0.000000 8.520406 0.000000 0.000000 1.905762 0.000000 -0.000000 -4.658285 0.000000 0.000000 -0.000000 0.000000
-77.581158 48.980826 19.016461 179.381239 -31.888799 -4.010076 0.071266 19.028284 1.973072 -0.020068 2.244672 0.231055 -0.030971 3.713581 0.330797 0.047486 16.502842 1.624218 -0.676381 20.976112 0.154009 -1.271768 3.163278 0.473934 -2.920356 -4.314053 -4.768117 0.425588 -3.750020 -10.408562 -56.325738 -55.818286 103.929884 4.925856 1.999542 -8.408357 -1.673829 -4.336581 3.806609 9.745190 -0.135167 15.573251 73.516314 -48.985372 -104.793677 11.932559 -2.219791 15.689162 1.289562 -52.911385 -11.005263 -172.359897 82.829340 -160.820830 -26.167133 -3.027765 -3.053416 -0.216229 -9.887581 2.465074 -14.807869 -54.686778 17.082321 -72.824344 65.973408 -78.148876 30.639856 6.672163 15.806921 0.016998 -0.175749 0.017617
-77.587182 48.980479 19.014255 179.393170 -31.888338 -4.022232 0.059436 19.020333 2.009303 -0.023277 2.248583 0.218168 -0.025971 3.713236 0.335921 0.030424 16.500474 1.645285 -0.723936 21.017231 0.174322 -1.363589 3.240355 0.523923 -2.962808 -4.396914 -4.818519 0.312433 -3.718208 -10.356089 -56.541740 -55.607224 104.127513 4.741911 1.650095 -8.698914 -1.750438 -4.362975 3.856436 9.497161 -0.051150 15.781797 73.872279 -49.441792 -105.223412 11.391480 -1.668888 14.608107 1.303640 -52.908288 -11.008073 -172.285261 82.822789 -160.752697 -26.142467 -3.019153 -3.041745 -0.216304 -9.887844 2.473451 -14.805300 -54.690724 17.090764 -72.826560 65.960468 -78.164742 30.646080 6.673914 15.828490 0.014937 -0.179564 0.018415
-77.598124 48.980038 19.011668 179.404266 -31.889672 -4.015986 0.031558 19.017445 2.005870 -0.025802 2.248101 0.220954 -0.015913 3.715169 0.342424 0.011662 16.497890 1.653318 -0.690979 21.053848 0.205884 -1.296504 3.313608 0.543600 -3.000842 -4.464756 -4.853166 0.159309 -3.711354 -10.289754 -56.722305 -55.405204 104.288766 4.585377 1.310797 -8.989225 -1.832006 -4.392729 3.921860 9.257583 0.052999 15.942002 74.220106 -49.822280 -105.638945 10.849739 -1.110429 13.500525 1.344958 -52.904762 -11.040652 -172.190662 82.819947 -160.657059 -26.184630 -3.013265 -3.030229 -0.221470 -9.883185 2.489538 -14.772917 -54.698708 17.067965 -72.816119 65.941343 -78.186412 30.671077 6.674844 15.877994 -0.002516 -0.190770 0.015215
-77.607517 48.979501 19.009909 179.416214 -31.888192 -4.030595 0.007904 19.012037 2.018876 -0.037617 2.245378 0.225616 -0.043533 3.707190 0.368376 0.044159 16.511664 1.617558 -0.590001 21.082098 0.265626 -1.076454 3.381915 0.538964 -3.055342 -4.532893 -4.856862 -0.011650 -3.715249 -10.210218 -56.872794 -55.202497 104.408685 4.452398 1.003752 -9.276221 -1.931179 -4.428164 4.015976 9.041651 0.169991 16.055189 74.509338 -50.102793 -106.016316 10.324771 -0.576231 12.363054 1.340198 -52.903458 -11.036814 -172.186414 82.818596 -160.661327 -26.168347 -3.006405 -3.027700 -0.228288 -9.882800 2.501736 -14.780966 -54.701591 17.080045 -72.810677 65.935450 -78.197631 30.676691 6.670771 15.899273 -0.008998 -0.191011 0.016887
-77.614791 48.979678 19.008064 179.426374 -31.892230 -4.066855 -0.025530 19.008241 2.048376 -0.020505 2.250633 0.223437 -0.069994 3.701922 0.377884 0.031204 16.510622 1.636521 -0.406819 21.115702 0.289249 -0.729035 3.443588 0.526758 -3.073678 -4.588653 -4.892650 -0.184363 -3.726730 -10.121735 -57.005035 -54.986594 104.491236 4.335889 0.756839 -9.571980 -1.990861 -4.458482 4.071035 8.862697 0.293638 16.124180 74.701068 -50.280467 -106.342681 9.842731 -0.110225 11.222704 1.305395 -52.893633 -10.996570 -172.190336 82.823189 -160.666659 -26.157774 -2.999540 -3.028004 -0.232819 -9.884163 2.510044 -14.782583 -54.703004 17.108690 -72.845013 65.920197 -78.231037 30.680251 6.666412 15.920259 -0.005388 -0.189821 0.013176
-77.624025 48.980120 19.006385 179.423476 -31.900270 -4.092624 -0.064726 19.005546 2.068827 0.008771 2.258243 0.220404 -0.087934 3.698907 0.382553 -0.052376 16.502048 1.681847 -0.129768 21.153008 0.284263 -0.289923 3.494160 0.524079 -3.030114 -4.631958 -4.955619 -0.346975 -3.741085 -10.030465 -57.140011 -54.748458 104.556324 4.234330 0.601152 -9.899618 -1.982106 -4.488718 4.087963 8.719629 0.418160 16.151946 74.766819 -50.343450 -106.608382 9.438242 0.265851 10.113263 1.324577 -52.879515 -10.977585 -172.117083 82.825649 -160.587829 -26.152710 -2.986548 -3.014796 -0.213479 -9.883138 2.515166 -14.762331 -54.703558 17.122366 -72.886881 65.906413 -78.269905 30.687136 6.661791 15.943014 -0.006656 -0.194054 0.013417
-77.635663 48.981068 19.004480 179.419085 -31.914511 -4.109222 -0.095140 19.014599 2.082005 0.001886 2.252959 0.221610 -0.055654 3.708008 0.376105 -0.124746 16.500376 1.719877 0.158680 21.175935 0.322361 0.195949 3.530276 0.539503 -3.019542 -4.675486 -4.980331 -0.496541 -3.757299 -9.939110 -57.294681 -54.493746 104.618442 4.147400 0.553018 -10.275346 -2.000293 -4.536305 4.128449 8.607903 0.534596 16.147872 74.679012 -50.258369 -106.797236 9.138481 0.562585 9.056639 1.311643 -52.865201 -10.943250 -172.113658 82.831635 -160.602826 -26.168318 -2.968547 -3.001009 -0.219616 -9.886058 2.522988 -14.757237 -54.692095 17.135769 -72.900809 65.900201 -78.295997 30.696016 6.655182 15.965729 -0.011049 -0.197180 0.013194
